<svg width="56" height="58" viewBox="0 0 56 56" fill="none" xmlns="http://www.w3.org/2000/svg">
<path d="M49.9 19.6C49.9 19.5 49.8 19.4 49.7 19.3L42.7 12.3C42.6 12.2 42.5 12.1 42.4 12.1C42.3 12 42.1 12 42 12H36V3C36 2.4 35.6 2 35 2H7C6.4 2 6 2.4 6 3V43C6 43.6 6.4 44 7 44H20V53C20 53.6 20.4 54 21 54H49C49.6 54 50 53.6 50 53V20C50 19.9 50 19.7 49.9 19.6ZM43 15.4L46.6 19H43V15.4ZM8 42V4H34V12H21C20.4 12 20 12.4 20 13V18H12C11.4 18 11 18.4 11 19C11 19.6 11.4 20 12 20H20V23H12C11.4 23 11 23.4 11 24C11 24.6 11.4 25 12 25H20V28H12C11.4 28 11 28.4 11 29C11 29.6 11.4 30 12 30H20V42H8ZM48 52H22V43V14H35H41V20C41 20.6 41.4 21 42 21H48V52Z" fill="#B4C6EE"/>
<path d="M24 30C24 30.6 24.4 31 25 31H45C45.6 31 46 30.6 46 30C46 29.4 45.6 29 45 29H25C24.4 29 24 29.4 24 30Z" fill="#B4C6EE"/>
<path d="M25 26H40C40.6 26 41 25.6 41 25C41 24.4 40.6 24 40 24H25C24.4 24 24 24.4 24 25C24 25.6 24.4 26 25 26Z" fill="#B4C6EE"/>
<path d="M25 36H35C35.6 36 36 35.6 36 35C36 34.4 35.6 34 35 34H25C24.4 34 24 34.4 24 35C24 35.6 24.4 36 25 36Z" fill="#B4C6EE"/>
<path d="M40 39H25C24.4 39 24 39.4 24 40C24 40.6 24.4 41 25 41H40C40.6 41 41 40.6 41 40C41 39.4 40.6 39 40 39Z" fill="#B4C6EE"/>
<path d="M12 14H17C17.6 14 18 13.6 18 13V8C18 7.4 17.6 7 17 7H12C11.4 7 11 7.4 11 8V13C11 13.6 11.4 14 12 14ZM13 9H16V12H13V9Z" fill="#B4C6EE"/>
</svg>
