<svg width="16" height="16" viewBox="0 0 16 16" fill="none" xmlns="http://www.w3.org/2000/svg">
<g clip-path="url(#clip0)">
<path d="M10.0001 1H4.66669C4.30102 1 4 1.30102 4 1.66662V4.5L10.0001 8L13.0001 9.26582L16.0001 8V4.5L10.0001 1Z" fill="#21A366"/>
<path fill-rule="evenodd" clip-rule="evenodd" d="M4 4.5H10.0001V8H4V4.5Z" fill="#107C41"/>
<path d="M15.3334 1H10V4.5H16V1.66662C16 1.30102 15.699 1 15.3334 1Z" fill="#33C481"/>
<path d="M10.0001 8H4V14.3334C4 14.699 4.30102 15 4.66669 15H15.3335C15.6991 15 16.0001 14.699 16.0001 14.3334V11.5L10.0001 8Z" fill="#185C37"/>
<path fill-rule="evenodd" clip-rule="evenodd" d="M10 8H16V11.5H10V8Z" fill="#107C41"/>
<path d="M8.33338 3.5H4V13H8.33338C8.69862 12.999 8.99898 12.6986 9 12.3334V4.16662C8.99898 3.80138 8.69862 3.50102 8.33338 3.5Z" fill="black" fill-opacity="0.094118"/>
<path d="M7.83338 4H4V13.5H7.83338C8.19862 13.499 8.49898 13.1986 8.5 12.8334V4.66662C8.49898 4.30138 8.19862 4.00102 7.83338 4Z" fill="black" fill-opacity="0.2"/>
<path d="M7.83338 4H4V12.5H7.83338C8.19862 12.499 8.49898 12.1986 8.5 11.8334V4.66662C8.49898 4.30138 8.19862 4.00102 7.83338 4Z" fill="black" fill-opacity="0.2"/>
<path d="M7.33338 4H4V12.5H7.33338C7.69862 12.499 7.99898 12.1986 8 11.8334V4.66662C7.99898 4.30138 7.69862 4.00102 7.33338 4Z" fill="black" fill-opacity="0.2"/>
<path d="M0.666618 4H7.33338C7.69898 4 8 4.30102 8 4.66662V11.3334C8 11.699 7.69906 12 7.33338 12H0.666618C0.301018 12 0 11.699 0 11.3334V4.66662C0 4.30102 0.301018 4 0.666618 4Z" fill="#107C41"/>
<path d="M1.76672 10.5L3.38461 7.99302L1.90272 5.5H3.09523L3.90418 7.09338C3.9785 7.24458 4.02963 7.35738 4.05756 7.43171H4.06803C4.12141 7.31091 4.17727 7.19345 4.23545 7.07949L5.1001 5.5H6.19501L4.67472 7.97905L6.23334 10.5H5.06869L4.13421 8.74967C4.09021 8.67527 4.0529 8.59702 4.02265 8.51607H4.00876C3.98141 8.59542 3.94519 8.67142 3.90061 8.74262L2.93829 10.5H1.76672Z" fill="white"/>
</g>
<defs>
<clipPath id="clip0">
<rect width="16" height="16" fill="white"/>
</clipPath>
</defs>
</svg>
