<svg width="33" height="30" viewBox="0 0 33 30" fill="none" xmlns="http://www.w3.org/2000/svg">
<rect x="0.5" y="0.5" width="31.8032" height="29" rx="2.5" fill="#E75D1B" stroke="#E0E0E0"/>
<path d="M23.7102 14.8614H17.2521V8.58148C17.2521 8.26033 16.9844 8 16.6541 8C16.3239 8 16.0561 8.26033 16.0561 8.58148V14.8614H9.59798C9.26771 14.8614 9 15.1218 9 15.4429C9 15.7641 9.26771 16.0244 9.59798 16.0244H16.0561V22.3044C16.0561 22.6255 16.3239 22.8858 16.6541 22.8858C16.9844 22.8858 17.2521 22.6255 17.2521 22.3044V16.0244H23.7102C24.0405 16.0244 24.3082 15.7641 24.3082 15.4429C24.3082 15.1218 24.0405 14.8614 23.7102 14.8614Z" fill="#FCFCFC"/>
</svg>
