<svg width="31" height="30" viewBox="0 0 31 30" fill="none" xmlns="http://www.w3.org/2000/svg">
<rect x="0.879883" y="0.5" width="29.1253" height="29" rx="2.5" stroke="#E0E0E0"/>
<path d="M22.4531 13.9922H16.5469V8.50781C16.5469 8.22735 16.302 8 16 8C15.698 8 15.4531 8.22735 15.4531 8.50781V13.9922H9.54688C9.24484 13.9922 9 14.2195 9 14.5C9 14.7805 9.24484 15.0078 9.54688 15.0078H15.4531V20.4922C15.4531 20.7727 15.698 21 16 21C16.302 21 16.5469 20.7727 16.5469 20.4922V15.0078H22.4531C22.7552 15.0078 23 14.7805 23 14.5C23 14.2195 22.7552 13.9922 22.4531 13.9922Z" fill="#2B437C"/>
</svg>
