<svg width="56" height="58" viewBox="0 0 56 56" fill="none" xmlns="http://www.w3.org/2000/svg">
<path d="M41.0999 56C40.0999 56 39.0999 55.4 38.6999 54.4L38.1999 53.1C36.8999 53.2 35.5999 53.2 34.1999 53.1L33.7999 54.2C33.4999 54.8 32.9999 55.3 32.3999 55.6C31.7999 55.9 31.0999 55.9 30.4999 55.6L26.8999 54.1C25.5999 53.6 24.9999 52.1 25.4999 50.8L25.8999 49.7C24.8999 48.9 23.8999 48 23.0999 46.9L22.1999 47.3C21.5999 47.6 20.8999 47.6 20.1999 47.3C19.5999 47 19.0999 46.5 18.7999 45.9L17.2999 42.3C16.7999 41 17.3999 39.5 18.6999 39L19.4999 38.7C19.2999 37.2 19.2999 35.8 19.4999 34.3L18.3999 33.9C17.7999 33.6 17.2999 33.1 16.9999 32.5C16.6999 31.9 16.6999 31.2 16.9999 30.6L18.4999 27C18.7999 26.4 19.2999 25.9 19.8999 25.6C20.4999 25.3 21.1999 25.3 21.7999 25.6L22.8999 26C23.6999 25 24.5999 24 25.6999 23.2L25.2999 22.3C24.9999 21.7 24.9999 21 25.2999 20.4C25.5999 19.8 26.0999 19.3 26.6999 19L30.2999 17.5C31.5999 17 33.0999 17.6 33.5999 18.9L33.8999 19.7C35.3999 19.5 36.7999 19.5 38.2999 19.7L38.6999 18.6C38.9999 18 39.4999 17.5 40.0999 17.2C40.6999 16.9 41.3999 16.9 41.9999 17.2L45.5999 18.7C46.1999 19 46.6999 19.5 46.9999 20.1C47.2999 20.7 47.2999 21.4 46.9999 22L46.5999 23.1C47.7999 24 48.7999 25 49.6999 26.2L50.8999 25.7C51.4999 25.4 52.1999 25.4 52.7999 25.7C53.3999 26 53.8999 26.5 54.1999 27.1L55.6999 30.7C56.1999 32 55.5999 33.5 54.2999 34L52.9999 34.5C53.0999 35.8 53.0999 37.1 52.9999 38.5L54.0999 38.9C55.3999 39.4 55.9999 40.9 55.4999 42.2L53.9999 45.8C53.4999 47.1 51.9999 47.7 50.6999 47.2L49.5999 46.8C48.6999 48 47.6999 49 46.4999 49.9L46.9999 51C47.2999 51.6 47.2999 52.3 46.9999 52.9C46.6999 53.5 46.1999 54 45.5999 54.3L41.9999 55.8C41.7999 55.9 41.3999 56 41.0999 56ZM39.4999 50.9L40.5999 53.6C40.6999 53.9 40.9999 54 41.2999 53.9L44.8999 52.4C44.9999 52.3 45.0999 52.2 45.1999 52.1C45.2999 52 45.2999 51.8 45.1999 51.7L44.0999 49L44.7999 48.5C46.2999 47.5 47.4999 46.3 48.4999 44.8L48.9999 44.1L51.4999 45.1C51.7999 45.2 52.0999 45.1 52.1999 44.8L53.6999 41.2C53.7999 41.1 53.7999 40.9 53.6999 40.8C53.5999 40.7 53.4999 40.6 53.3999 40.5L50.8999 39.5L50.9999 38.7C51.2999 37.1 51.2999 35.4 50.9999 33.8L50.8999 33L53.5999 31.9C53.8999 31.8 53.9999 31.5 53.8999 31.2L52.3999 27.6C52.2999 27.5 52.1999 27.4 52.0999 27.3C51.9999 27.2 51.7999 27.2 51.6999 27.3L48.9999 28.4L48.5999 28C47.5999 26.5 46.3999 25.3 44.8999 24.3L44.1999 23.8L45.1999 21.3C45.2999 21.2 45.2999 21 45.1999 20.9C45.0999 20.8 44.9999 20.7 44.8999 20.6L41.4999 19C41.3999 18.9 41.1999 18.9 41.0999 19C40.9999 19.1 40.8999 19.2 40.7999 19.3L39.7999 21.8L38.9999 21.7C37.2999 21.4 35.4999 21.4 33.6999 21.7L32.8999 21.8L31.8999 19.5C31.7999 19.2 31.4999 19.1 31.1999 19.2L27.5999 20.7C27.4999 20.8 27.3999 20.9 27.2999 21C27.1999 21.1 27.1999 21.3 27.2999 21.4L28.2999 23.8L27.6999 24.3C26.3999 25.3 25.1999 26.4 24.2999 27.8L23.7999 28.5L21.2999 27.5C21.1999 27.4 20.9999 27.4 20.8999 27.5C20.7999 27.6 20.6999 27.7 20.5999 27.8L18.9999 31.3C18.8999 31.4 18.8999 31.6 18.9999 31.7C19.0999 31.8 19.1999 31.9 19.2999 32L21.7999 33L21.6999 33.8C21.3999 35.5 21.3999 37.3 21.6999 39.1L21.7999 39.9L19.4999 40.9C19.1999 41 19.0999 41.3 19.1999 41.6L20.6999 45.2C20.7999 45.3 20.8999 45.4 20.9999 45.5C21.0999 45.6 21.2999 45.6 21.3999 45.5L23.7999 44.5L24.2999 45.1C25.2999 46.4 26.3999 47.6 27.7999 48.5L28.4999 49L27.4999 51.5C27.3999 51.8 27.4999 52.1 27.7999 52.2L31.3999 53.7C31.6999 53.8 31.9999 53.7 32.0999 53.4L33.0999 50.9L33.8999 51C35.4999 51.3 37.1999 51.3 38.7999 51L39.4999 50.9ZM36.3999 44.7C35.2999 44.7 34.2999 44.5 33.1999 44.1C28.8999 42.3 26.8999 37.4 28.6999 33.2C30.4999 28.9 35.3999 26.9 39.5999 28.7C43.8999 30.5 45.8999 35.4 44.0999 39.6C42.6999 42.8 39.5999 44.7 36.3999 44.7ZM33.8999 42.2C37.0999 43.5 40.8999 42 42.1999 38.8C43.4999 35.6 41.9999 31.8 38.7999 30.5C35.5999 29.2 31.7999 30.7 30.4999 33.9C29.1999 37.2 30.6999 40.9 33.8999 42.2Z" fill="#F3CD9F"/>
<path d="M14.8 27H12.2C11.1 27 10.2 26.1 10.2 25V24.5C9.5 24.3 8.8 24 8.2 23.7L7.9 24C7.1 24.8 5.8 24.8 5 24L3.2 22.2C2.4 21.4 2.4 20.1 3.2 19.3L3.4 19.1C3 18.4 2.7 17.6 2.4 16.8H2C0.9 16.8 0 15.9 0 14.8V12.2C0 11.1 0.9 10.2 2 10.2H2.5C2.7 9.5 3 8.8 3.3 8.2L3 7.9C2.7 7.5 2.5 7 2.5 6.5C2.5 6 2.7 5.5 3.1 5.1L4.9 3.3C5.7 2.5 7 2.5 7.8 3.3L8 3.5C8.7 3.1 9.5 2.8 10.3 2.5V2C10.3 0.9 11.2 0 12.3 0H14.9C16 0 16.9 0.9 16.9 2V2.5C17.7 2.7 18.4 3.1 19.2 3.5L19.6 3.1C20.4 2.3 21.7 2.3 22.5 3.1L24.3 4.9C25.1 5.7 25.1 7 24.3 7.8L23.8 8.3C24.1 8.9 24.4 9.6 24.6 10.3H25C26.1 10.3 27 11.2 27 12.3V14.9C27 16 26.1 16.9 25 16.9H24.5C24.3 17.7 23.9 18.4 23.5 19.2L23.9 19.6C24.7 20.4 24.7 21.7 23.9 22.5L22.1 24.3C21.3 25.1 20 25.1 19.2 24.3L18.7 23.8C18.1 24.1 17.4 24.4 16.7 24.6V25C16.8 26.1 15.9 27 14.8 27ZM7.9 21.1L8.6 21.5C9.5 22 10.5 22.4 11.5 22.7L12.3 22.9V25H14.9V22.9L15.7 22.7C16.7 22.5 17.7 22.1 18.6 21.5L19.3 21.1L20.9 22.7L22.7 20.9L21 19.3L21.4 18.6C22 17.7 22.5 16.6 22.7 15.5L22.9 14.7H25V12.1H22.9L22.7 11.3C22.5 10.3 22.1 9.3 21.5 8.4L21.1 7.7L22.7 6.1L20.9 4.3L19.3 6L18.6 5.6C17.7 5 16.6 4.5 15.5 4.3L14.7 4.1V2H12.1V4.1L11.3 4.3C10.3 4.5 9.3 5 8.3 5.6L7.7 6L6.3 4.6L4.5 6.5L5.9 7.9L5.4 8.5C4.9 9.4 4.5 10.4 4.2 11.4L4 12.2H2V14.8H4.1L4.3 15.6C4.5 16.7 5 17.7 5.6 18.7L6 19.3L4.6 20.7L6.4 22.5L7.9 21.1ZM13.5 19.3C10.3 19.3 7.7 16.7 7.7 13.5C7.7 10.3 10.3 7.7 13.5 7.7C16.7 7.7 19.3 10.3 19.3 13.5C19.3 16.7 16.7 19.3 13.5 19.3ZM13.5 9.7C11.4 9.7 9.7 11.4 9.7 13.5C9.7 15.6 11.4 17.3 13.5 17.3C15.6 17.3 17.3 15.6 17.3 13.5C17.3 11.4 15.6 9.7 13.5 9.7Z" fill="#F3CD9F"/>
</svg>
